<svg xmlns="http://www.w3.org/2000/svg" xmlns:xlink="http://www.w3.org/1999/xlink" width="19.21" height="54.898" viewBox="0 0 19.21 54.898">
  <defs>
    <clipPath id="clip-path">
      <rect id="長方形_1107" data-name="長方形 1107" width="19.21" height="54.898" transform="translate(-2 -2)" fill="none" stroke="#d6d6d6" stroke-width="1"/>
    </clipPath>
  </defs>
  <g id="グループ_2101" data-name="グループ 2101" transform="translate(2 2)" clip-path="url(#clip-path)">
    <path id="パス_1548" data-name="パス 1548" d="M8.259,110.242c-1.347,0-5.715-.078-7.513-1.045a1.708,1.708,0,0,1-1-1.054l-.03-.09,0-.095a15.318,15.318,0,0,1,.746-4.037l.007-.021a25.572,25.572,0,0,1,1.261-2.54,17.841,17.841,0,0,0,.81-1.6c.218-.615.964-3.018.972-3.042a.5.5,0,1,1,.955.3c-.031.1-.76,2.446-.985,3.08a17.117,17.117,0,0,1-.872,1.739,25.4,25.4,0,0,0-1.2,2.41A14.311,14.311,0,0,0,.722,107.9a.709.709,0,0,0,.4.37l.038.014.035.019c2.242,1.243,11.674,1.253,14.645.017.219-.1.393-.2.455-.377a11.339,11.339,0,0,0-.718-3.76,20.522,20.522,0,0,0-1.14-2.368,15.758,15.758,0,0,1-.917-1.9c-.251-.645-.814-2.492-.838-2.57a.5.5,0,0,1,.957-.291c.006.019.576,1.889.815,2.5a15.031,15.031,0,0,0,.864,1.78,21.6,21.6,0,0,1,1.194,2.487l.006.015A12.271,12.271,0,0,1,17.3,108v.059l-.013.057a1.643,1.643,0,0,1-1.029,1.113l-.02.009c-1.759.737-5.261,1-7.952,1Z" transform="translate(-0.902 -58.159)" fill="#d6d6d6"/>
    <path id="パス_1549" data-name="パス 1549" d="M14.309,96.053c-1.813,0-4.019-.153-4.988-1.345A2.441,2.441,0,0,1,8.9,92.577a5.059,5.059,0,0,1,2.075-3.189.5.5,0,0,1,.573.82,4.064,4.064,0,0,0-1.667,2.564v.006a1.479,1.479,0,0,0,.214,1.3c.711.875,2.744.976,4.212.976,1.88,0,3.113-.339,3.567-.981a1.649,1.649,0,0,0,.039-1.552,5.079,5.079,0,0,0-1.386-2.03.5.5,0,1,1,.664-.748,6.082,6.082,0,0,1,1.662,2.434l0,.006a2.6,2.6,0,0,1-.164,2.466C18.025,95.594,16.591,96.053,14.309,96.053Z" transform="translate(-6.3 -53.97)" fill="#d6d6d6"/>
    <path id="パス_1550" data-name="パス 1550" d="M19.664,51.108a.5.5,0,0,1-.5-.5c0-1.934-.74-4.09-1.8-4.09-1.232,0-1.995,2.123-1.995,4.09a.5.5,0,0,1-1,0c0-2.529,1.029-5.09,2.995-5.09,1.821,0,2.8,2.622,2.8,5.09A.5.5,0,0,1,19.664,51.108Z" transform="translate(-9.581 -28.035)" fill="#d6d6d6"/>
    <path id="パス_1551" data-name="パス 1551" d="M16.813,42.4a4.555,4.555,0,0,1-2.151-.488,1.835,1.835,0,0,1-1.075-1.6l.184-38.129.011-.051a3.025,3.025,0,0,1,1.839-2.17,3.093,3.093,0,0,1,3.39.652,3.134,3.134,0,0,1,.865,1.505l.014.059v.061c0,.319.319,37.9.322,38.28v.018a1.656,1.656,0,0,1-1.086,1.382A5.035,5.035,0,0,1,16.9,42.4ZM14.77,2.3l-.183,38.018c0,.607.978,1.084,2.226,1.084H16.9a4.085,4.085,0,0,0,1.775-.372c.391-.2.537-.405.537-.49v-.014C19.2,39.008,18.9,4.043,18.89,2.3a2.136,2.136,0,0,0-.577-.973l-.005-.005a2.093,2.093,0,0,0-2.3-.441L16,.889A2.026,2.026,0,0,0,14.77,2.3Z" transform="translate(-9.119 -0.901)" fill="#d6d6d6"/>
  </g>
</svg>
