<svg xmlns="http://www.w3.org/2000/svg" width="31.309" height="31.838" viewBox="0 0 31.309 31.838">
  <g id="icon-instagram-gray" transform="translate(0.5 0.5)">
    <path id="パス_23" data-name="パス 23" d="M-567.423,18h13.914a1.027,1.027,0,0,0,.128.03c.224.025.45.036.672.071a8.548,8.548,0,0,1,5.08,2.7,8.408,8.408,0,0,1,2.31,5.844q.017,6.8,0,13.61a8.136,8.136,0,0,1-.135,1.449,8.51,8.51,0,0,1-2.661,4.824,8.525,8.525,0,0,1-4.681,2.218c-.237.034-.474.062-.711.092h-13.914a1.04,1.04,0,0,0-.127-.03c-.224-.025-.45-.036-.673-.072a8.548,8.548,0,0,1-5.08-2.7,8.41,8.41,0,0,1-2.31-5.844q-.017-6.8,0-13.61a8.121,8.121,0,0,1,.135-1.449,8.509,8.509,0,0,1,2.65-4.814,8.527,8.527,0,0,1,4.692-2.228C-567.9,18.059-567.66,18.031-567.423,18Zm-5.117,15.414q0,3.23,0,6.459,0,.323.019.646a5.057,5.057,0,0,0,.607,2.168,5.514,5.514,0,0,0,5.1,3.058c4.231.016,8.462.005,12.693,0a6.455,6.455,0,0,0,.676-.033,5.483,5.483,0,0,0,3.6-1.834,5.486,5.486,0,0,0,1.449-3.786q.006-6.564,0-13.129,0-.323-.019-.646a5.065,5.065,0,0,0-.607-2.168,5.506,5.506,0,0,0-5.088-3.057c-4.241-.018-8.482-.006-12.723,0a6.3,6.3,0,0,0-.66.033,5.484,5.484,0,0,0-3.6,1.834,5.492,5.492,0,0,0-1.449,3.786C-572.544,28.967-572.541,31.19-572.541,33.414Z" transform="translate(575.621 -18)" fill="#898989"/>
    <path id="パス_23_-_アウトライン" data-name="パス 23 - アウトライン" d="M-567.456,17.5h14.006l.058.014.056.015.019.005.219.021c.151.013.307.027.468.053a9.064,9.064,0,0,1,5.369,2.854,8.909,8.909,0,0,1,2.442,6.181c.01,3.938.009,8.264,0,13.612a8.619,8.619,0,0,1-.143,1.539,9.023,9.023,0,0,1-2.814,5.1,9.047,9.047,0,0,1-4.95,2.346c-.165.023-.33.044-.49.064l-.226.029-.032,0h-14.006l-.058-.014-.057-.015-.019-.005-.219-.021c-.151-.013-.307-.027-.468-.053a9.063,9.063,0,0,1-5.369-2.854,8.911,8.911,0,0,1-2.443-6.181c-.01-3.992-.009-8.317,0-13.612a8.6,8.6,0,0,1,.143-1.539,9.022,9.022,0,0,1,2.8-5.09A9.049,9.049,0,0,1-568.2,17.6c.165-.023.33-.044.49-.064l.226-.029Zm13.88,1h-13.816l-.2.025c-.156.02-.318.04-.475.062a8.067,8.067,0,0,0-4.423,2.1,8.043,8.043,0,0,0-2.5,4.537,7.6,7.6,0,0,0-.127,1.36c-.012,5.294-.013,9.617,0,13.608a7.939,7.939,0,0,0,2.178,5.506,8.086,8.086,0,0,0,4.791,2.544c.126.02.258.032.4.044.084.007.167.015.251.024a.933.933,0,0,1,.139.027h13.816l.2-.025c.156-.02.318-.04.475-.062a8.064,8.064,0,0,0,4.413-2.091,8.044,8.044,0,0,0,2.509-4.547,7.618,7.618,0,0,0,.127-1.36c.012-5.347.012-9.671,0-13.608A7.938,7.938,0,0,0-548,21.139a8.087,8.087,0,0,0-4.791-2.544c-.126-.02-.258-.032-.4-.044-.084-.007-.167-.015-.251-.024A.932.932,0,0,1-553.576,18.5Zm-5.737,2.084c2,0,3.656,0,5.208.01a5.978,5.978,0,0,1,5.524,3.316,5.571,5.571,0,0,1,.668,2.379c.013.223.02.45.02.676V28.7c0,3.734,0,7.6,0,11.394a5.982,5.982,0,0,1-1.578,4.121,5.983,5.983,0,0,1-3.918,2,6.9,6.9,0,0,1-.728.036l-3.2,0-4.312,0c-1.99,0-3.638,0-5.185-.009a5.988,5.988,0,0,1-5.539-3.316,5.564,5.564,0,0,1-.668-2.38c-.013-.222-.02-.449-.02-.675q0-2.62,0-5.24V33.414q0-.992,0-1.985c0-1.536,0-3.124,0-4.686a5.989,5.989,0,0,1,1.578-4.12,5.984,5.984,0,0,1,3.918-2,6.825,6.825,0,0,1,.713-.036l3.273,0Q-561.435,20.585-559.313,20.584Zm-2.315,24.669,4.311,0,3.2,0a5.91,5.91,0,0,0,.623-.031,5.011,5.011,0,0,0,3.281-1.672,5.01,5.01,0,0,0,1.32-3.451c0-3.8,0-7.659,0-11.393V26.965c0-.206-.006-.414-.018-.617a4.58,4.58,0,0,0-.546-1.956,5.447,5.447,0,0,0-1.921-2.088,5.244,5.244,0,0,0-2.732-.71c-1.55-.007-3.2-.01-5.2-.01q-2.122,0-4.244,0l-3.273,0a5.824,5.824,0,0,0-.608.031,5.012,5.012,0,0,0-3.281,1.672,5.017,5.017,0,0,0-1.32,3.452c0,1.561,0,3.148,0,4.684q0,.993,0,1.985v1.219q0,2.62,0,5.24c0,.207.006.414.018.617a4.572,4.572,0,0,0,.546,1.956,5.441,5.441,0,0,0,1.927,2.091,5.272,5.272,0,0,0,2.741.708C-565.263,45.25-563.616,45.253-561.627,45.253Z" transform="translate(575.621 -18)" fill="rgba(0,0,0,0)"/>
    <path id="パス_24" data-name="パス 24" d="M-439.919,150.174a7.942,7.942,0,0,1-8.051,7.924,7.939,7.939,0,0,1-7.823-8.062,7.937,7.937,0,0,1,8.073-7.811A7.94,7.94,0,0,1-439.919,150.174Zm-2.474-.24a5.481,5.481,0,0,0-5.7-5.238,5.488,5.488,0,0,0-5.231,5.693,5.487,5.487,0,0,0,5.7,5.238A5.48,5.48,0,0,0-442.393,149.935Z" transform="translate(463.012 -134.744)" fill="#898989"/>
    <path id="パス_24_-_アウトライン" data-name="パス 24 - アウトライン" d="M-447.862,158.6h-.115a8.376,8.376,0,0,1-5.93-2.556,8.39,8.39,0,0,1-2.386-6.012,8.382,8.382,0,0,1,2.493-5.856,8.387,8.387,0,0,1,5.949-2.448h.139a8.375,8.375,0,0,1,5.863,2.513,8.4,8.4,0,0,1,2.43,5.935A8.451,8.451,0,0,1-447.862,158.6Zm.011-15.874a7.393,7.393,0,0,0-5.244,2.158,7.387,7.387,0,0,0-2.2,5.161,7.4,7.4,0,0,0,2.1,5.3,7.382,7.382,0,0,0,5.226,2.254,7.451,7.451,0,0,0,7.545-7.425,7.4,7.4,0,0,0-2.142-5.232,7.381,7.381,0,0,0-5.167-2.215Zm0,13.407h0a5.94,5.94,0,0,1-4.157-1.689,5.932,5.932,0,0,1-1.814-4.033,5.98,5.98,0,0,1,5.71-6.213c.083,0,.168-.005.251-.005a5.945,5.945,0,0,1,4.156,1.687,5.906,5.906,0,0,1,1.812,4.038,5.911,5.911,0,0,1-1.568,4.278,6.006,6.006,0,0,1-4.14,1.933C-447.684,156.131-447.769,156.133-447.851,156.133Zm-.011-10.941c-.069,0-.14,0-.21,0a4.932,4.932,0,0,0-3.414,1.58,4.94,4.94,0,0,0-1.337,3.594,4.936,4.936,0,0,0,1.511,3.355,4.945,4.945,0,0,0,3.46,1.407h0c.069,0,.139,0,.209,0a5,5,0,0,0,3.445-1.61,4.919,4.919,0,0,0,1.3-3.562A4.912,4.912,0,0,0-444.4,146.6,4.95,4.95,0,0,0-447.862,145.192Z" transform="translate(463.012 -134.744)" fill="rgba(0,0,0,0)"/>
    <path id="パス_25" data-name="パス 25" d="M-214.228,110.642a1.76,1.76,0,0,1-1.76,1.776,1.773,1.773,0,0,1-1.782-1.776,1.773,1.773,0,0,1,1.8-1.772A1.761,1.761,0,0,1-214.228,110.642Z" transform="translate(239.324 -103.396)" fill="#898989"/>
    <path id="パス_25_-_アウトライン" data-name="パス 25 - アウトライン" d="M-215.993,112.918a2.267,2.267,0,0,1-1.618-.672,2.246,2.246,0,0,1-.659-1.606,2.252,2.252,0,0,1,.711-1.648,2.285,2.285,0,0,1,1.6-.622,2.266,2.266,0,0,1,2.233,2.272,2.27,2.27,0,0,1-.657,1.609,2.246,2.246,0,0,1-1.6.667Z" transform="translate(239.324 -103.396)" fill="rgba(0,0,0,0)"/>
  </g>
</svg>
