<svg xmlns="http://www.w3.org/2000/svg" xmlns:xlink="http://www.w3.org/1999/xlink" width="46" height="46" viewBox="0 0 46 46">
  <defs>
    <clipPath id="clip-path">
      <rect id="長方形_1113" data-name="長方形 1113" width="18.297" height="31.171"/>
    </clipPath>
  </defs>
  <g id="icon-salon-search" transform="translate(-573 -3412)">
    <g id="グループ_2131" data-name="グループ 2131" transform="translate(586.529 3420.118)">
      <g id="マスクグループ_2114" data-name="マスクグループ 2114" clip-path="url(#clip-path)">
        <path id="パス_1552" data-name="パス 1552" d="M17.435,14.254c-1.5,3.781-5.966,12.887-7.818,16.627a.522.522,0,0,1-.936,0C6.829,27.141,2.359,18.034.863,14.254A11.668,11.668,0,0,1,1.737,3.675,8.467,8.467,0,0,1,9.149,0a8.467,8.467,0,0,1,7.412,3.674,11.668,11.668,0,0,1,.874,10.579m-8.286-.036A4.791,4.791,0,1,0,4.358,9.427a4.791,4.791,0,0,0,4.791,4.791" transform="translate(0 -0.001)"/>
      </g>
    </g>
    <path id="楕円形_177" data-name="楕円形 177" d="M23,1.5a21.506,21.506,0,0,0-8.368,41.311A21.506,21.506,0,0,0,31.368,3.189,21.364,21.364,0,0,0,23,1.5M23,0A23,23,0,1,1,0,23,23,23,0,0,1,23,0Z" transform="translate(573 3412)"/>
  </g>
</svg>
