<svg xmlns="http://www.w3.org/2000/svg" xmlns:xlink="http://www.w3.org/1999/xlink" width="19.21" height="54.898" viewBox="0 0 19.21 54.898">
  <defs>
    <clipPath id="clip-path">
      <rect id="長方形_1106" data-name="長方形 1106" width="16.29" height="49.65" transform="translate(-2 -2)" fill="none" stroke="#d6d6d6" stroke-width="1"/>
    </clipPath>
    <clipPath id="clip-path-2">
      <rect id="長方形_1108" data-name="長方形 1108" width="19.21" height="54.898" transform="translate(-2 -2)" fill="none"/>
    </clipPath>
  </defs>
  <g id="グループ_2126" data-name="グループ 2126" transform="translate(-818.125 -323.259)">
    <g id="グループ_2100" data-name="グループ 2100" transform="translate(821.585 327.883)" clip-path="url(#clip-path)">
      <path id="パス_1540" data-name="パス 1540" d="M7.13,92.123a19.326,19.326,0,0,1-5.8-.64C.9,91.337-.127,90.917-.236,90.164-.464,88.539,1.343,76.157,2.092,74.2l.012-.03a4.518,4.518,0,0,1,2.521-2.61.5.5,0,0,1,.236.972,3.729,3.729,0,0,0-1.841,2.04,63.618,63.618,0,0,0-1.469,7.872,56.974,56.974,0,0,0-.8,7.567,1.825,1.825,0,0,0,.9.525,19.657,19.657,0,0,0,5.481.588,22.935,22.935,0,0,0,5.551-.583c.61-.176.783-.352.827-.458-.047-1.622-1.68-14.033-2.379-15.864a2.987,2.987,0,0,0-1.748-1.7.5.5,0,1,1,.279-.96,3.949,3.949,0,0,1,2.4,2.3c.737,1.93,2.447,14.752,2.447,16.288v.05l-.01.049c-.174.861-1.167,1.148-1.541,1.256A23.621,23.621,0,0,1,7.13,92.123Z" transform="translate(-0.98 -45.234)" fill="#d6d6d6"/>
      <path id="パス_1541" data-name="パス 1541" d="M11.891,59.506h-.029a.5.5,0,0,1-.471-.528c0-.025.143-2.516.237-6.179a51.237,51.237,0,0,0-.289-5.644.5.5,0,1,1,.994-.107,52.24,52.24,0,0,1,.294,5.76v.011c-.1,3.683-.237,6.191-.239,6.215A.5.5,0,0,1,11.891,59.506Z" transform="translate(-8.127 -29.862)" fill="#d6d6d6"/>
      <path id="パス_1542" data-name="パス 1542" d="M24.034,59.5a.5.5,0,0,1-.5-.471c0-.025-.143-2.533-.239-6.215V52.8a52.2,52.2,0,0,1,.294-5.756.5.5,0,0,1,.994.107A51.2,51.2,0,0,0,24.3,52.8c.095,3.663.236,6.154.237,6.178a.5.5,0,0,1-.471.528Z" transform="translate(-15.498 -29.862)" fill="#d6d6d6"/>
      <path id="パス_1543" data-name="パス 1543" d="M21.454,99.117h-.018a.5.5,0,0,1-.482-.518c.008-.212.187-5.181.253-6.324a9.232,9.232,0,0,1,.8-3.434l.009-.017a5.653,5.653,0,0,1,.76-.929A8.1,8.1,0,0,0,23.8,86.644a3.216,3.216,0,0,0,.435-1.312.5.5,0,1,1,.99.139,4.237,4.237,0,0,1-.569,1.69,8.854,8.854,0,0,1-1.141,1.416,5.492,5.492,0,0,0-.619.735,8.315,8.315,0,0,0-.686,2.98v.027c-.064,1.106-.25,6.264-.252,6.316A.5.5,0,0,1,21.454,99.117Z" transform="translate(-14.055 -53.468)" fill="#d6d6d6"/>
      <path id="パス_1544" data-name="パス 1544" d="M16.04,117.471h-.022a4.5,4.5,0,0,1-1.514-.25.5.5,0,1,1,.347-.938,3.519,3.519,0,0,0,1.17.188,2.72,2.72,0,0,0,1.059-.178.5.5,0,1,1,.395.919A3.706,3.706,0,0,1,16.04,117.471Z" transform="translate(-9.878 -72.791)" fill="#d6d6d6"/>
      <path id="パス_1545" data-name="パス 1545" d="M11.816,37.149a.5.5,0,0,1-.5-.5c0-7.719-.01-12.851-.027-14.45-.018-1.846-.141-18.422-.024-19.561A2.758,2.758,0,0,1,14.2-.259a2.753,2.753,0,0,1,2.938,2.9c.108,1.1,0,16.888-.024,19.566-.018,1.625-.027,6.495-.027,14.083a.5.5,0,0,1-1,0c0-7.592.009-12.465.027-14.093.033-3.436.125-18.485.029-19.458-.124-1.267-.482-2-1.942-2s-1.809.733-1.939,2c-.1.966-.006,15.747.029,19.449.017,1.6.027,6.737.027,14.46A.5.5,0,0,1,11.816,37.149Z" transform="translate(-8.052 -0.98)" fill="#d6d6d6"/>
      <path id="パス_1546" data-name="パス 1546" d="M9.736,99.5a.5.5,0,0,1-.5-.479,75.009,75.009,0,0,0-.668-8.21,4.935,4.935,0,0,0-.981-1.8,15.859,15.859,0,0,1-.954-1.391L6.621,87.6a3.719,3.719,0,0,1-.458-1.4.5.5,0,0,1,1-.089A2.754,2.754,0,0,0,7.5,87.122a15.056,15.056,0,0,0,.892,1.3A5.942,5.942,0,0,1,9.53,90.538a78.4,78.4,0,0,1,.706,8.445.5.5,0,0,1-.479.52Z" transform="translate(-4.937 -53.936)" fill="#d6d6d6"/>
      <path id="パス_1547" data-name="パス 1547" d="M8.481,119.773a16.906,16.906,0,0,1-6.2-.945.5.5,0,0,1,.406-.914c2.565,1.139,9.058,1.143,11.389.007a.5.5,0,0,1,.438.9A15.428,15.428,0,0,1,8.481,119.773Z" transform="translate(-2.364 -73.79)" fill="#d6d6d6"/>
    </g>
  </g>
</svg>
