<svg xmlns="http://www.w3.org/2000/svg" width="40.778" height="31.359" viewBox="0 0 40.778 31.359">
  <g transform="translate(-1318.897 -3423.45)">
    <path id="icon-twitter-gray" d="M86.731,128.761c14.076,0,21.775-11.662,21.775-21.775,0-.331,0-.661-.022-.989a15.57,15.57,0,0,0,3.818-3.961,15.278,15.278,0,0,1-4.4,1.2,7.68,7.68,0,0,0,3.365-4.233,15.336,15.336,0,0,1-4.86,1.858,7.66,7.66,0,0,0-13.042,6.98,21.728,21.728,0,0,1-15.772-8,7.659,7.659,0,0,0,2.369,10.216,7.6,7.6,0,0,1-3.473-.958v.1a7.656,7.656,0,0,0,6.14,7.5,7.642,7.642,0,0,1-3.456.131,7.662,7.662,0,0,0,7.15,5.315,15.357,15.357,0,0,1-9.5,3.283,15.588,15.588,0,0,1-1.822-.11,21.666,21.666,0,0,0,11.731,3.432" transform="translate(1246 3325.548)" fill="#898989"/>
    <path id="icon-twitter-gray_-_アウトライン" data-name="icon-twitter-gray - アウトライン" d="M86.731,129.261v-.006a22.135,22.135,0,0,1-12-3.511L72.9,124.568l2.162.259a15.149,15.149,0,0,0,1.763.107h.015a14.929,14.929,0,0,0,8.127-2.421A8.163,8.163,0,0,1,78.7,116.99l-.258-.8.829.16a7.121,7.121,0,0,0,1.184.126,8.15,8.15,0,0,1-4.463-7.268v-.948l.743.414a7.1,7.1,0,0,0,1.561.64A8.163,8.163,0,0,1,77.164,99.6l.364-.626.457.562a21.261,21.261,0,0,0,14.774,7.77,8.16,8.16,0,0,1,13.82-6.984,14.793,14.793,0,0,0,4.437-1.743l1.137-.675-.406,1.258a8.178,8.178,0,0,1-1.945,3.217,14.768,14.768,0,0,0,2.3-.8l1.577-.7-.959,1.434A16.013,16.013,0,0,1,109,106.24c.009.252.009.5.009.746a22.639,22.639,0,0,1-1.455,7.844A22.96,22.96,0,0,1,103.272,122a21.1,21.1,0,0,1-6.99,5.238A22.545,22.545,0,0,1,86.731,129.261Zm0-1.006v.006a21.554,21.554,0,0,0,9.13-1.934,20.1,20.1,0,0,0,6.66-4.992,21.963,21.963,0,0,0,4.093-6.856,21.628,21.628,0,0,0,1.391-7.493c0-.331,0-.644-.021-.955l-.019-.277.225-.163a15.026,15.026,0,0,0,2.676-2.479,15.769,15.769,0,0,1-2.9.624l-2.319.274,2-1.2a7.177,7.177,0,0,0,2.6-2.692,15.8,15.8,0,0,1-3.74,1.236l-.271.054-.19-.2a7.16,7.16,0,0,0-12.191,6.524l.15.646-.662-.033a22.262,22.262,0,0,1-15.647-7.6,7.174,7.174,0,0,0,2.547,8.9l1.448.967-1.741-.052a8.133,8.133,0,0,1-2.922-.64,7.155,7.155,0,0,0,5.7,6.291l2.067.418-2.035.555a8.19,8.19,0,0,1-2.817.258,7.163,7.163,0,0,0,6.389,4.206l1.4.026-1.1.867a15.928,15.928,0,0,1-9.575,3.388,21.117,21.117,0,0,0,9.642,2.323Z" transform="translate(1246 3325.548)" fill="rgba(0,0,0,0)"/>
  </g>
</svg>
