<svg xmlns="http://www.w3.org/2000/svg" xmlns:xlink="http://www.w3.org/1999/xlink" width="56.578" height="37.885" viewBox="0 0 56.578 37.885">
  <defs>
    <clipPath id="clip-path">
      <path id="パス_1558" data-name="パス 1558" d="M0,0H56.578V37.885H0Z" fill="#898989"/>
    </clipPath>
  </defs>
  <g id="icon-contact-gray" transform="translate(333.941 -4.057)">
    <g id="マスクグループ_133" data-name="マスクグループ 133" transform="translate(-333.941 4.057)" clip-path="url(#clip-path)">
      <path id="パス_964" data-name="パス 964" d="M55.627,37.885H.951A.951.951,0,0,1,0,36.934V.951A.951.951,0,0,1,.951,0H55.627a.951.951,0,0,1,.951.951V36.934a.951.951,0,0,1-.951.951M1.9,35.984H54.676V1.9H1.9Z" transform="translate(0 0)" fill="#898989"/>
      <path id="パス_964_-_アウトライン" data-name="パス 964 - アウトライン" d="M55.627,38.385H.951A1.453,1.453,0,0,1-.5,36.934V.951A1.453,1.453,0,0,1,.951-.5H55.627A1.453,1.453,0,0,1,57.078.951V36.934A1.453,1.453,0,0,1,55.627,38.385ZM.951.5A.452.452,0,0,0,.5.951V36.934a.452.452,0,0,0,.451.451H55.627a.451.451,0,0,0,.451-.451V.951A.451.451,0,0,0,55.627.5ZM55.176,36.484H1.4V1.4H55.176Zm-52.774-1H54.176V2.4H2.4Z" transform="translate(0 0)" fill="rgba(0,0,0,0)"/>
      <path id="パス_965" data-name="パス 965" d="M28.289,26.813a.948.948,0,0,1-.641-.248L.311,1.654A.951.951,0,0,1,.951,0H55.627a.951.951,0,0,1,.641,1.654L28.929,26.565a.947.947,0,0,1-.64.248M3.407,1.9,28.289,24.576,53.171,1.9Z" transform="translate(0 0)" fill="#898989"/>
      <path id="パス_965_-_アウトライン" data-name="パス 965 - アウトライン" d="M28.289,27.313a1.447,1.447,0,0,1-.978-.379L-.026,2.023A1.46,1.46,0,0,1-.4.427,1.46,1.46,0,0,1,.951-.5H55.627A1.442,1.442,0,0,1,56.98.427a1.46,1.46,0,0,1-.376,1.6L29.266,26.935A1.446,1.446,0,0,1,28.289,27.313ZM.951.5A.448.448,0,0,0,.53.788a.454.454,0,0,0,.117.5L27.985,26.2a.45.45,0,0,0,.607,0L55.931,1.284a.454.454,0,0,0,.117-.5A.448.448,0,0,0,55.627.5ZM28.289,25.252,2.116,1.4H54.462ZM4.7,2.4,28.289,23.9,51.88,2.4Z" transform="translate(0 0)" fill="rgba(0,0,0,0)"/>
      <path id="パス_966" data-name="パス 966" d="M55.627,51.951H.951a.951.951,0,0,1-.57-1.712L22.043,34a.951.951,0,1,1,1.141,1.522L3.8,50.049H52.774L33.639,35.7a.951.951,0,1,1,1.141-1.522L56.2,50.239a.951.951,0,0,1-.57,1.712" transform="translate(0 -14.066)" fill="#898989"/>
      <path id="パス_966_-_アウトライン" data-name="パス 966 - アウトライン" d="M55.627,52.451H.951a1.451,1.451,0,0,1-.871-2.612L21.743,33.6a1.44,1.44,0,0,1,.87-.29,1.451,1.451,0,0,1,.871,2.612L5.305,49.549H51.274L33.339,36.1a1.451,1.451,0,0,1-.29-2.032,1.459,1.459,0,0,1,1.162-.58,1.438,1.438,0,0,1,.87.291L56.5,49.839a1.451,1.451,0,0,1-.87,2.612ZM22.613,34.305a.448.448,0,0,0-.27.09L.681,50.639a.451.451,0,0,0,.271.812H55.627a.451.451,0,0,0,.27-.812L34.48,34.579a.451.451,0,1,0-.541.722L54.274,50.549H2.3L22.884,35.117a.451.451,0,0,0-.271-.812Z" transform="translate(0 -14.066)" fill="rgba(0,0,0,0)"/>
    </g>
  </g>
</svg>
