<svg xmlns="http://www.w3.org/2000/svg" xmlns:xlink="http://www.w3.org/1999/xlink" width="37" height="37" viewBox="0 0 37 37">
  <defs>
    <clipPath id="clip-path">
      <rect id="長方形_1114" data-name="長方形 1114" width="37" height="37" transform="translate(0 0.254)" fill="none"/>
    </clipPath>
  </defs>
  <g id="icon-line-gray" transform="translate(2.789 1.645)">
    <g id="グループ_2117" data-name="グループ 2117" transform="translate(-2.788 -1.899)" clip-path="url(#clip-path)">
      <path id="パス_1553" data-name="パス 1553" d="M34.014,17.006A17.006,17.006,0,1,1,17.007,0,17.006,17.006,0,0,1,34.014,17.006m-5.694-1.021c0-5.062-5.074-9.18-11.312-9.18S5.7,10.924,5.7,15.985c0,4.538,4.024,8.338,9.46,9.057.369.079.87.243,1,.558a2.323,2.323,0,0,1,.036,1.023s-.132.8-.162.968c-.049.286-.227,1.118.98.61a36.53,36.53,0,0,0,8.888-6.568h0a8.168,8.168,0,0,0,2.425-5.648" transform="translate(2.442 1.526)" fill="#898989"/>
      <path id="パス_1554" data-name="パス 1554" d="M49.328,47.768h-.794a.22.22,0,0,0-.22.22v4.929a.22.22,0,0,0,.22.22h.794a.22.22,0,0,0,.22-.22V47.988a.22.22,0,0,0-.22-.22" transform="translate(-32.177 -32.702)" fill="#898989"/>
      <path id="パス_1555" data-name="パス 1555" d="M59.86,47.768h-.793a.22.22,0,0,0-.22.22v2.928l-2.259-3.05-.017-.022h0l-.013-.013,0,0-.012-.01-.006,0-.011-.008-.007,0-.012-.007-.007,0-.013-.005-.007,0-.013,0-.008,0-.013,0H55.61a.22.22,0,0,0-.22.22v4.929a.22.22,0,0,0,.22.22H56.4a.22.22,0,0,0,.221-.22V49.99l2.262,3.054a.22.22,0,0,0,.056.054l0,0,.014.008.006,0,.011.005.01,0,.007,0,.015,0h0a.217.217,0,0,0,.056.007h.793a.22.22,0,0,0,.22-.22V47.988a.22.22,0,0,0-.22-.22" transform="translate(-37.247 -32.702)" fill="#898989"/>
      <path id="パス_1556" data-name="パス 1556" d="M36.573,51.9H34.417V47.988a.22.22,0,0,0-.22-.22H33.4a.22.22,0,0,0-.22.22v4.928h0a.219.219,0,0,0,.062.152l0,0,0,0a.219.219,0,0,0,.152.061h3.17a.22.22,0,0,0,.22-.22v-.794a.22.22,0,0,0-.22-.22" transform="translate(-21.335 -32.702)" fill="#898989"/>
      <path id="パス_1557" data-name="パス 1557" d="M78.048,49a.22.22,0,0,0,.22-.22v-.793a.22.22,0,0,0-.22-.221h-3.17a.217.217,0,0,0-.152.062l0,0,0,0a.218.218,0,0,0-.061.152h0v4.928h0a.219.219,0,0,0,.062.152l0,0,0,0a.219.219,0,0,0,.152.062h3.17a.22.22,0,0,0,.22-.22v-.794a.22.22,0,0,0-.22-.22H75.892v-.833h2.156a.22.22,0,0,0,.22-.22v-.793a.22.22,0,0,0-.22-.221H75.892V49Z" transform="translate(-51.054 -32.702)" fill="#898989"/>
    </g>
  </g>
</svg>
