<svg xmlns="http://www.w3.org/2000/svg" xmlns:xlink="http://www.w3.org/1999/xlink" width="31.634" height="31.634" viewBox="0 0 31.634 31.634">
  <defs>
    <clipPath id="clip-path">
      <rect id="長方形_1002" data-name="長方形 1002" width="31.634" height="31.634" transform="translate(0 0)" fill="none"/>
    </clipPath>
  </defs>
  <g id="グループ_1736" data-name="グループ 1736" clip-path="url(#clip-path)">
    <path id="パス_1454" data-name="パス 1454" d="M28,13.873A14,14,0,1,1,14,0,13.936,13.936,0,0,1,28,13.873" transform="translate(1.698 2.026)" fill="#c3c3c3"/>
    <path id="パス_1455" data-name="パス 1455" d="M38.713,31.5c0-4.129-4.177-7.488-9.312-7.488S20.09,27.369,20.09,31.5c0,3.7,3.313,6.8,7.787,7.388.3.065.716.2.821.455a1.878,1.878,0,0,1,.03.834s-.109.651-.133.79c-.04.233-.187.912.807.5a30.06,30.06,0,0,0,7.316-5.357h0a6.633,6.633,0,0,0,2-4.607" transform="translate(-13.704 -16.432)" fill="#292929"/>
    <path id="パス_1456" data-name="パス 1456" d="M49.149,47.768H48.5a.18.18,0,0,0-.181.179v4.021a.18.18,0,0,0,.181.179h.653a.18.18,0,0,0,.181-.179V47.947a.18.18,0,0,0-.181-.179" transform="translate(-35.343 -34.698)" fill="#c3c3c3"/>
    <path id="パス_1457" data-name="パス 1457" d="M59.069,47.768h-.653a.18.18,0,0,0-.181.179v2.389l-1.86-2.488-.014-.018h0l-.011-.011,0,0-.01-.008,0,0-.009-.006-.006,0-.01-.005-.006,0-.011,0-.006,0-.011,0-.006,0-.011,0h-.686a.18.18,0,0,0-.181.179v4.021a.18.18,0,0,0,.181.179h.653a.18.18,0,0,0,.182-.179V49.58l1.862,2.492a.18.18,0,0,0,.046.044h0l.011.007.005,0,.009,0,.009,0,.006,0,.012,0h0a.18.18,0,0,0,.046.006h.653a.18.18,0,0,0,.181-.179V47.947a.18.18,0,0,0-.181-.179" transform="translate(-40.768 -34.698)" fill="#c3c3c3"/>
    <path id="パス_1458" data-name="パス 1458" d="M35.973,51.141H34.2V47.947a.18.18,0,0,0-.181-.179h-.653a.18.18,0,0,0-.181.179v4.02h0a.177.177,0,0,0,.051.124l0,0,0,0a.181.181,0,0,0,.125.05h2.609a.18.18,0,0,0,.181-.18V51.32a.18.18,0,0,0-.181-.18" transform="translate(-23.743 -34.698)" fill="#c3c3c3"/>
    <path id="パス_1459" data-name="パス 1459" d="M77.448,48.775a.18.18,0,0,0,.181-.18v-.647a.18.18,0,0,0-.181-.18H74.839a.179.179,0,0,0-.126.051l0,0,0,0a.177.177,0,0,0-.05.124h0v4.02h0a.177.177,0,0,0,.051.124l0,0,0,0a.181.181,0,0,0,.125.05h2.609a.18.18,0,0,0,.181-.18V51.32a.18.18,0,0,0-.181-.18H75.674v-.68h1.775a.18.18,0,0,0,.181-.18v-.647a.18.18,0,0,0-.181-.18H75.674v-.68Z" transform="translate(-55.54 -34.698)" fill="#c3c3c3"/>
  </g>
</svg>
