<svg xmlns="http://www.w3.org/2000/svg" width="229.743" height="20.937" viewBox="0 0 229.743 20.937">
  <g id="グループ_461" data-name="グループ 461" transform="translate(-840.763 -3374.748)">
    <path id="パス_634" data-name="パス 634" d="M6.268,21.1a1.034,1.034,0,0,1-.378-.052.182.182,0,0,1-.126-.178q0-.252.756-.378a3.553,3.553,0,0,0,1.292-.483,1.81,1.81,0,0,0,.725-1.071l2.9-9.492a1.321,1.321,0,0,0,.031-1.05,1.35,1.35,0,0,0-.892-.462.78.78,0,0,1-.41-.168.364.364,0,0,1-.094-.252q0-.126.189-.178a1.656,1.656,0,0,1,.441-.053q.525,0,.861.021t.651.032q.315.01.756.01.42,0,.7-.01t.6-.032q.315-.021.84-.021.5,0,.5.231,0,.147-.21.252a2.117,2.117,0,0,1-.567.168,3.472,3.472,0,0,0-.872.252,1.583,1.583,0,0,0-.6.462,2.354,2.354,0,0,0-.378.8l-2.9,9.492a1.484,1.484,0,0,0-.063.8.767.767,0,0,0,.378.483,2.772,2.772,0,0,0,.756.273,1.071,1.071,0,0,1,.42.147.28.28,0,0,1,.105.231q0,.126-.189.178a1.656,1.656,0,0,1-.441.052q-.525,0-.861-.031t-.64-.052Q9.25,21,8.788,21a12,12,0,0,0-1.218.052Q7.066,21.1,6.268,21.1Zm8.841.231a.377.377,0,0,1-.241-.094.914.914,0,0,1-.2-.231.887.887,0,0,1-.116-.3.455.455,0,0,1,.032-.294l2.436-5.964q.378-.924.042-.924a1.991,1.991,0,0,0-.441.052,1.345,1.345,0,0,0-.5.263,3.518,3.518,0,0,0-.609.651.214.214,0,0,1-.179.074q-.094-.011-.136-.158a.993.993,0,0,1,.073-.326,3.325,3.325,0,0,1,.179-.4,3.744,3.744,0,0,1,.189-.325,2.171,2.171,0,0,1,.851-.756,2.909,2.909,0,0,1,1.249-.294.79.79,0,0,1,.42.116.715.715,0,0,1,.283.325.562.562,0,0,1-.01.462l-1.386,3.57q-.063.147.031.168a.141.141,0,0,0,.157-.084,16.194,16.194,0,0,1,1.753-2.488,8.353,8.353,0,0,1,1.712-1.543,2.785,2.785,0,0,1,1.449-.525,1.085,1.085,0,0,1,.767.3,1.441,1.441,0,0,1,.42.819,2.056,2.056,0,0,1-.2,1.187L21.2,19.194q-.315.756.105.756a1.422,1.422,0,0,0,.619-.189,6.616,6.616,0,0,0,.746-.451q.378-.262.661-.483t.368-.3q.021-.021.032-.021h.031a.161.161,0,0,1,.116.052.185.185,0,0,1,.052.137.518.518,0,0,1-.084.294,9.744,9.744,0,0,1-1.165,1.176,5.623,5.623,0,0,1-1.281.83,3.163,3.163,0,0,1-1.333.3.643.643,0,0,1-.378-.137.852.852,0,0,1-.283-.346.514.514,0,0,1,.01-.441q.609-1.407,1.229-2.8t1.166-2.8a2.165,2.165,0,0,0,.231-1.208.445.445,0,0,0-.4-.368.967.967,0,0,0-.546.158,4.047,4.047,0,0,0-.714.546,9.047,9.047,0,0,0-.861.934,10.9,10.9,0,0,0-.672.913q-.42.62-.945,1.428T16.82,18.889q-.557.913-1.061,1.8a2.664,2.664,0,0,1-.336.493A.429.429,0,0,1,15.109,21.336Zm10.29-.042a1.258,1.258,0,0,1-.8-.263.807.807,0,0,1-.336-.661,1.043,1.043,0,0,1,.22-.725q.221-.242.368-.242a.519.519,0,0,1,.3.116q.157.115.346.283a5.016,5.016,0,0,0,.515.326,1.531,1.531,0,0,0,.745.157,1.108,1.108,0,0,0,.9-.41A1.461,1.461,0,0,0,28.024,19a3.548,3.548,0,0,0-.157-1,5.136,5.136,0,0,0-.451-1.06,8.854,8.854,0,0,1-.451-.956,1.978,1.978,0,0,1,.147-1.911,3.792,3.792,0,0,1,.8-.934,4.4,4.4,0,0,1,.934-.62,1.85,1.85,0,0,1,.735-.22,1.084,1.084,0,0,1,.546.158,1.818,1.818,0,0,1,.451.357.428.428,0,0,1,.052.651,1.846,1.846,0,0,1-.294.325.482.482,0,0,1-.294.147.3.3,0,0,1-.21-.1l-.231-.231a1.511,1.511,0,0,0-.3-.231.927.927,0,0,0-.472-.105.766.766,0,0,0-.588.284,1.08,1.08,0,0,0-.252.745,1.935,1.935,0,0,0,.115.525q.116.357.273.735t.3.672a5.815,5.815,0,0,1,.431,1.061,3.849,3.849,0,0,1,.2,1.123,1.97,1.97,0,0,1-.368,1.155,3.51,3.51,0,0,1-.955.913,4.913,4.913,0,0,1-1.271.6A4.458,4.458,0,0,1,25.4,21.294Zm3,5.712a.645.645,0,0,1-.221-.042.151.151,0,0,1-.115-.147q0-.168.221-.284a1.173,1.173,0,0,1,.41-.137,2.221,2.221,0,0,0,.693-.231,1,1,0,0,0,.4-.546L33.841,14.3a2.526,2.526,0,0,0,.126-.441q.021-.147-.063-.2a.432.432,0,0,0-.294-.01q-.5.084-.871.179a4.533,4.533,0,0,0-.809.3.368.368,0,0,1-.3.031.184.184,0,0,1-.136-.178.393.393,0,0,1,.094-.273.738.738,0,0,1,.221-.168q.336-.168.966-.462a8.176,8.176,0,0,1,1.47-.5.705.705,0,0,0,.242-.116.412.412,0,0,0,.136-.22,7.3,7.3,0,0,1,.546-1.428.785.785,0,0,1,.714-.441.445.445,0,0,1,.294.1.276.276,0,0,1,.084.294L35.9,11.991a.475.475,0,0,0-.021.3q.042.095.126.073.273-.042.493-.063t.431-.021a3.3,3.3,0,0,1,1.649.347,1.894,1.894,0,0,1,.84.945,3.534,3.534,0,0,1,.242,1.333,5.457,5.457,0,0,1-.462,2.111,8.6,8.6,0,0,1-1.25,2.079,7.084,7.084,0,0,1-1.764,1.585,3.778,3.778,0,0,1-2.027.609.892.892,0,0,1-.42-.126q-.231-.126-.441-.252-.189-.126-.3-.073t-.263.451l-1.386,4.095a.582.582,0,0,0,.094.661,1.271,1.271,0,0,0,.767.263,2.232,2.232,0,0,1,.42.084q.21.063.21.231,0,.126-.189.178a1.568,1.568,0,0,1-.42.053q-.315,0-.651-.011t-.619-.01a4.4,4.4,0,0,0-.472.021q-.525.063-1.019.1T28.4,27.006Zm6.153-6.426a1.758,1.758,0,0,0,1.092-.535,6.869,6.869,0,0,0,1.166-1.375,9.374,9.374,0,0,0,.924-1.785A4.933,4.933,0,0,0,38.1,15.1a2.274,2.274,0,0,0-.42-1.6,1.659,1.659,0,0,0-1.176-.441H36.13a2.366,2.366,0,0,0-.42.042l-1.932,5.67a2.49,2.49,0,0,0-.137.7,1.491,1.491,0,0,0,.073.556.845.845,0,0,0,.3.41A.934.934,0,0,0,34.555,20.58Zm6.7.714a.8.8,0,0,1-.588-.231.683.683,0,0,1-.231-.483,1.353,1.353,0,0,1,.01-.168.519.519,0,0,1,.053-.168q.861-1.743,1.449-3.286t1.05-2.7q.084-.252-.105-.252a1.487,1.487,0,0,0-.409.116,4.756,4.756,0,0,0-.641.3,5.371,5.371,0,0,0-.588.378.2.2,0,0,1-.21.042.149.149,0,0,1-.1-.147.591.591,0,0,1,.158-.3,3.7,3.7,0,0,1,.441-.451,8.062,8.062,0,0,1,.683-.535q.4-.284.871-.567a8.913,8.913,0,0,1,1-.514.372.372,0,0,1,.378.042,1,1,0,0,1,.3.315.351.351,0,0,1,.074.294l-2.562,6.069a1.3,1.3,0,0,0-.116.325,1.46,1.46,0,0,0-.031.284.2.2,0,0,0,.115.2.533.533,0,0,0,.221.053,1.174,1.174,0,0,0,.672-.284,9.2,9.2,0,0,0,.808-.693q.43-.41.83-.808a.121.121,0,0,1,.084-.042.14.14,0,0,1,.084.031.091.091,0,0,1,.042.074,1.536,1.536,0,0,1-.4.85,7.17,7.17,0,0,1-1,1.029,7.748,7.748,0,0,1-1.229.872A2.327,2.327,0,0,1,41.254,21.294ZM45.5,10.227a.656.656,0,0,1-.525-.252.863.863,0,0,1-.21-.567,1.325,1.325,0,0,1,.336-.892,1.065,1.065,0,0,1,.84-.388.6.6,0,0,1,.525.283,1.094,1.094,0,0,1,.189.62,1.2,1.2,0,0,1-.336.83A1.068,1.068,0,0,1,45.5,10.227Zm1.491,11.13a.466.466,0,0,1-.231-.073.68.68,0,0,1-.21-.189.4.4,0,0,1-.084-.241,2.024,2.024,0,0,1,.136-.641q.136-.389.347-.976l1.932-5.04a1.252,1.252,0,0,0,.094-.5q-.01-.231-.221-.231a2.292,2.292,0,0,0-.577.073,1.824,1.824,0,0,0-.431.158.237.237,0,0,1-.241.031.2.2,0,0,1-.116-.2.656.656,0,0,1,.158-.378,1.839,1.839,0,0,1,.431-.4,2.3,2.3,0,0,1,.6-.315,2.1,2.1,0,0,1,.724-.126q.588,0,.745.294a1.119,1.119,0,0,1,.042.788,7.972,7.972,0,0,1-.367,1.123l-.945,2.373q-.084.147.053.189a.155.155,0,0,0,.2-.063,21.727,21.727,0,0,1,1.69-2.531A10.718,10.718,0,0,1,52.3,12.8a2.148,2.148,0,0,1,1.218-.6.87.87,0,0,1,.766.315,1.249,1.249,0,0,1,.221.735,2.393,2.393,0,0,1-.136.777,1.843,1.843,0,0,1-.378.661.717.717,0,0,1-.535.262.272.272,0,0,1-.252-.2,1.406,1.406,0,0,1-.084-.536,1.182,1.182,0,0,0-.084-.493.316.316,0,0,0-.315-.178,1.024,1.024,0,0,0-.556.273,5.8,5.8,0,0,0-.872.945q-.231.315-.609.861t-.809,1.208q-.43.661-.85,1.344t-.735,1.249q-.567,1.008-.808,1.47T46.986,21.357Zm8.925-.042a1.5,1.5,0,0,1-.893-.336,2.738,2.738,0,0,1-.745-.851,2.008,2.008,0,0,1-.294-1,6.569,6.569,0,0,1,.431-2.236A8.971,8.971,0,0,1,55.6,14.668a6.843,6.843,0,0,1,1.754-1.7,3.756,3.756,0,0,1,2.111-.661,1.885,1.885,0,0,1,1.144.3,1,1,0,0,1,.41.851,1.7,1.7,0,0,1-.41,1.134,3.431,3.431,0,0,1-1.1.83A8.324,8.324,0,0,1,57.959,16q-.85.231-1.732.4a.9.9,0,0,0-.2.052.24.24,0,0,0-.115.158q-.147.462-.294,1.008a3.965,3.965,0,0,0-.147,1.029,1.939,1.939,0,0,0,.284,1.134.953.953,0,0,0,.829.4,2.134,2.134,0,0,0,1.281-.378,5.26,5.26,0,0,0,.861-.756.566.566,0,0,1,.378-.231.186.186,0,0,1,.21.21V19.1a.131.131,0,0,1-.042.094,5.128,5.128,0,0,1-.945,1.166,3.807,3.807,0,0,1-1.123.714A3.419,3.419,0,0,1,55.912,21.315Zm.462-5.4a3.871,3.871,0,0,0,.788-.137,5.611,5.611,0,0,0,1.165-.441,3.716,3.716,0,0,0,1.04-.756A1.512,1.512,0,0,0,59.8,13.5a.775.775,0,0,0-.147-.472.49.49,0,0,0-.42-.2,1.679,1.679,0,0,0-.955.367,6.016,6.016,0,0,0-.977.882,7.482,7.482,0,0,0-.766,1,1.6,1.6,0,0,0-.3.714Q56.227,15.918,56.374,15.918Zm5.943,5.376a1.265,1.265,0,0,1-.987-.42,1.57,1.57,0,0,1-.378-1.092A5.448,5.448,0,0,1,61.3,18a11.157,11.157,0,0,1,.945-2A12.486,12.486,0,0,1,63.6,14.133a7.476,7.476,0,0,1,1.659-1.439,2.971,2.971,0,0,1,1.512-.514,1.113,1.113,0,0,1,.441.073,7.7,7.7,0,0,1,.756.451l.493.3q.052.031.01.031.063,0,.105-.147l1.407-4.725a1.221,1.221,0,0,0,.052-.2.672.672,0,0,1,.021-.105.2.2,0,0,0,.01-.063V7.749a.521.521,0,0,0-.126-.368,1.231,1.231,0,0,0-.462-.262l-.546-.2q-.084-.031-.084-.095a.256.256,0,0,1,.168-.231,2.08,2.08,0,0,1,.546-.147q.315-.042.64-.094t.6-.084l.462-.053q.189-.021.252-.021.252,0,.252.294a1.234,1.234,0,0,1-.021.22q-.021.115-.063.262l-3.4,11.781q-.042.168-.074.326a1.656,1.656,0,0,0-.032.325q0,.462.294.462a1.45,1.45,0,0,0,.651-.2,3.86,3.86,0,0,0,.756-.535,4.42,4.42,0,0,0,.651-.714.238.238,0,0,1,.084-.084.186.186,0,0,1,.084-.021q.168,0,.126.168a1.173,1.173,0,0,1-.231.588,4.927,4.927,0,0,1-.609.745,7.958,7.958,0,0,1-.808.725,5.606,5.606,0,0,1-.83.546,1.517,1.517,0,0,1-.672.21.8.8,0,0,1-.441-.137,1.126,1.126,0,0,1-.346-.357.848.848,0,0,1-.137-.451,4.318,4.318,0,0,1,.084-.546q.042-.231.126-.577t.157-.672q.074-.325.105-.472t-.01.042a.3.3,0,0,0-.011-.242q-.052-.073-.115.031a13.653,13.653,0,0,1-2.541,2.6A3.8,3.8,0,0,1,62.317,21.294Zm.777-.987a2.419,2.419,0,0,0,1.239-.41,6.829,6.829,0,0,0,1.334-1.092,11.176,11.176,0,0,0,1.218-1.5,9,9,0,0,0,.893-1.638,4.011,4.011,0,0,0,.336-1.512,1.506,1.506,0,0,0-.273-.955.932.932,0,0,0-.777-.347,1.887,1.887,0,0,0-1.092.462,7.736,7.736,0,0,0-1.239,1.218,13.084,13.084,0,0,0-1.165,1.649,10.567,10.567,0,0,0-.861,1.774,4.576,4.576,0,0,0-.326,1.554.937.937,0,0,0,.157.63A.745.745,0,0,0,63.094,20.307Zm15.645.861a1.782,1.782,0,0,1-1.3-.472,1.669,1.669,0,0,1-.483-1.25,6.409,6.409,0,0,1,.126-1.186,10.5,10.5,0,0,1,.357-1.354l2.646-8a3.745,3.745,0,0,0,.158-.578,3.053,3.053,0,0,0,.052-.556.236.236,0,0,0-.115-.189,1.4,1.4,0,0,0-.41-.168q-.651-.168-.651-.315a.21.21,0,0,1,.074-.168.828.828,0,0,1,.262-.126q.231-.084.6-.2t.745-.22q.378-.105.682-.168a2.643,2.643,0,0,1,.389-.063q.336,0,.336.21a1.465,1.465,0,0,1-.032.326,3.349,3.349,0,0,1-.115.368q-.168.42-.462,1.249t-.64,1.848q-.347,1.018-.7,2.058t-.662,1.942q-.3.9-.472,1.449-.084.21.01.252t.242-.147a13.955,13.955,0,0,1,2.352-2.52,3.309,3.309,0,0,1,1.89-.882,1.508,1.508,0,0,1,1.554,1.554,5.55,5.55,0,0,1-.388,1.984,9.268,9.268,0,0,1-1.05,1.974,9.786,9.786,0,0,1-1.5,1.712,7.7,7.7,0,0,1-1.733,1.2A3.939,3.939,0,0,1,78.739,21.168Zm.546-.672A1.419,1.419,0,0,0,80,20.2a6.456,6.456,0,0,0,.956-.809,10.449,10.449,0,0,0,1-1.165,10.624,10.624,0,0,0,.924-1.481,10.223,10.223,0,0,0,.661-1.554,4.206,4.206,0,0,0,.242-1.25.979.979,0,0,0-.179-.6.524.524,0,0,0-.43-.242,2.422,2.422,0,0,0-1.491.735,16.1,16.1,0,0,0-3.066,4.032,3.089,3.089,0,0,0-.42,1.218,1.565,1.565,0,0,0,.326.987A.952.952,0,0,0,79.285,20.5Zm4.893,6.594a1.093,1.093,0,0,1-.63-.221.754.754,0,0,1-.315-.661,1.078,1.078,0,0,1,.126-.525,1.2,1.2,0,0,1,.315-.378.615.615,0,0,1,.378-.147.56.56,0,0,1,.357.115q.147.115.294.241a2.681,2.681,0,0,0,.294.221.608.608,0,0,0,.336.094,2.188,2.188,0,0,0,1.543-.934,10.986,10.986,0,0,0,1.5-2.341,7.007,7.007,0,0,0,.64-2.174,19.956,19.956,0,0,0,.158-2.615,11.1,11.1,0,0,0-.22-2.478,4.142,4.142,0,0,0-.5-1.333q-.284-.409-.493-.41a.675.675,0,0,0-.452.242,3.217,3.217,0,0,0-.441.556,2.664,2.664,0,0,0-.284.567,1.724,1.724,0,0,1-.147.357q-.126.252-.252.252-.084,0-.136-.179a1.453,1.453,0,0,1-.053-.41,2.362,2.362,0,0,1,.2-.945,3.26,3.26,0,0,1,.525-.84,2.991,2.991,0,0,1,.7-.609,1.409,1.409,0,0,1,.735-.231,1.139,1.139,0,0,1,.851.357,2.549,2.549,0,0,1,.557,1.029,16.414,16.414,0,0,1,.525,2.236,16.072,16.072,0,0,1,.126,3.434q-.021.378.074.357t.242-.294a19.223,19.223,0,0,0,1.25-3.066,12.585,12.585,0,0,0,.556-3.843.4.4,0,0,1,.158-.252.442.442,0,0,1,.242-.147.531.531,0,0,1,.252.116,1.142,1.142,0,0,1,.3.325.83.83,0,0,1,.137.462,9.071,9.071,0,0,1-.651,3.066,22.8,22.8,0,0,1-1.827,3.738,34.037,34.037,0,0,1-2.73,3.906q-.735.9-1.491,1.67a9.127,9.127,0,0,1-1.459,1.229A2.4,2.4,0,0,1,84.177,27.09Z" transform="translate(835 3368.595)"/>
    <path id="パス_636" data-name="パス 636" d="M23.787,11.445V10.29H20.826l.483-3.99H20.175l-.483,3.99H15.366l.5-3.99H14.715l-.483,3.99h-3.15v1.155h3l-.546,4.41H10.41V17.01h2.982L12.909,21h1.134l.5-3.99h4.305L18.369,21H19.5l.483-3.99h3.129V15.855H20.133l.546-4.41ZM19,15.855H14.673l.567-4.41h4.305Zm14.2,5.271a7.148,7.148,0,0,0,5.4-2.163l-.987-.987a5.766,5.766,0,0,1-4.347,1.764,6.007,6.007,0,0,1-6.216-6.09,6.007,6.007,0,0,1,6.216-6.09A5.826,5.826,0,0,1,37.6,9.3l.987-.987a7.118,7.118,0,0,0-5.376-2.142,7.38,7.38,0,0,0-7.707,7.476A7.375,7.375,0,0,0,33.195,21.126ZM52.515,21h1.638L47.433,6.3H45.9L39.18,21H40.8l1.764-3.927h8.19Zm-9.387-5.187,3.528-7.9,3.528,7.9ZM68.328,21l-3.591-5.04a4.557,4.557,0,0,0,3.36-4.62c0-3.15-2.268-5.04-6.006-5.04h-5.5V21h1.554V16.338h3.948a10.464,10.464,0,0,0,1.176-.063L66.627,21Zm-6.279-5.985H58.143V7.644h3.906c2.94,0,4.494,1.344,4.494,3.7C66.543,13.65,64.989,15.015,62.049,15.015Zm11.277,4.641V14.2h7.6V12.873h-7.6V7.644h8.526V6.3H71.772V21h10.4V19.656ZM96.825,6.3h-5.5V21h1.554V16.359h3.948c3.738,0,6.006-1.89,6.006-5.019C102.831,8.19,100.563,6.3,96.825,6.3Zm-.042,8.694H92.877V7.644h3.906c2.94,0,4.494,1.344,4.494,3.7C101.277,13.65,99.723,14.994,96.783,14.994ZM117.93,21l-3.591-5.04a4.557,4.557,0,0,0,3.36-4.62c0-3.15-2.268-5.04-6.006-5.04h-5.5V21h1.554V16.338h3.948a10.464,10.464,0,0,0,1.176-.063L116.229,21Zm-6.279-5.985h-3.906V7.644h3.906c2.94,0,4.494,1.344,4.494,3.7C116.145,13.65,114.591,15.015,111.651,15.015ZM127.8,21.126a7.392,7.392,0,0,0,7.707-7.476,7.721,7.721,0,0,0-15.435,0A7.4,7.4,0,0,0,127.8,21.126Zm0-1.386a5.978,5.978,0,0,1-6.195-6.09,6.175,6.175,0,0,1,12.348,0A5.955,5.955,0,0,1,127.8,19.74Z" transform="translate(935 3369.595)"/>
  </g>
</svg>
