<svg id="グループ_2010" data-name="グループ 2010" xmlns="http://www.w3.org/2000/svg" width="24.974" height="25.41" viewBox="0 0 24.974 25.41">
  <path id="パス_23" data-name="パス 23" d="M-568.866,18H-557.4a.847.847,0,0,0,.105.025c.185.02.371.03.554.059a7.044,7.044,0,0,1,4.186,2.224,6.928,6.928,0,0,1,1.9,4.815q.014,5.607,0,11.214a6.705,6.705,0,0,1-.111,1.194,7.012,7.012,0,0,1-2.193,3.975,7.025,7.025,0,0,1-3.857,1.828c-.195.028-.39.051-.586.076h-11.465a.855.855,0,0,0-.105-.025c-.185-.02-.371-.03-.554-.059a7.044,7.044,0,0,1-4.186-2.224,6.93,6.93,0,0,1-1.9-4.815q-.014-5.607,0-11.214a6.7,6.7,0,0,1,.111-1.194,7.011,7.011,0,0,1,2.184-3.966,7.026,7.026,0,0,1,3.866-1.836C-569.257,18.048-569.061,18.025-568.866,18Zm-4.217,12.7q0,2.661,0,5.322,0,.266.016.532a4.167,4.167,0,0,0,.5,1.786,4.544,4.544,0,0,0,4.2,2.519c3.486.013,6.973,0,10.459,0a5.316,5.316,0,0,0,.557-.027,4.518,4.518,0,0,0,2.966-1.512,4.52,4.52,0,0,0,1.194-3.119q0-5.409,0-10.818,0-.266-.016-.532a4.172,4.172,0,0,0-.5-1.786,4.537,4.537,0,0,0-4.192-2.519c-3.495-.015-6.989,0-10.484,0a5.189,5.189,0,0,0-.544.027,4.519,4.519,0,0,0-2.966,1.512,4.526,4.526,0,0,0-1.194,3.12C-573.086,27.037-573.083,28.869-573.083,30.7Z" transform="translate(575.621 -18)" fill="#fff"/>
  <path id="パス_24" data-name="パス 24" d="M-442.714,148.775a6.544,6.544,0,0,1-6.634,6.529,6.541,6.541,0,0,1-6.446-6.643,6.54,6.54,0,0,1,6.652-6.436A6.542,6.542,0,0,1-442.714,148.775Zm-2.038-.2a4.516,4.516,0,0,0-4.7-4.316,4.522,4.522,0,0,0-4.31,4.691,4.521,4.521,0,0,0,4.7,4.316A4.515,4.515,0,0,0-444.752,148.578Z" transform="translate(461.741 -136.061)" fill="#fff"/>
  <path id="パス_25" data-name="パス 25" d="M-214.852,110.33a1.45,1.45,0,0,1-1.45,1.463,1.461,1.461,0,0,1-1.468-1.463,1.461,1.461,0,0,1,1.481-1.46A1.451,1.451,0,0,1-214.852,110.33Z" transform="translate(235.53 -104.36)" fill="#fff"/>
</svg>
