<svg xmlns="http://www.w3.org/2000/svg" xmlns:xlink="http://www.w3.org/1999/xlink" width="140.126" height="52.722" viewBox="0 0 140.126 52.722">
  <defs>
    <clipPath id="clip-path">
      <rect id="長方形_194" data-name="長方形 194" width="30.763" height="30.763" fill="#9d9d9d"/>
    </clipPath>
  </defs>
  <g id="グループ_462" data-name="グループ 462" transform="translate(-895.608 -3793.187)">
    <path id="パス_637" data-name="パス 637" d="M10.646,4.116a6.15,6.15,0,0,0-6.538,6.328A6.142,6.142,0,0,0,10.59,16.8a6.808,6.808,0,0,0,2.926-.644l-.238-.686a6.175,6.175,0,0,1-2.688.616,5.413,5.413,0,0,1-5.712-5.642A5.421,5.421,0,0,1,10.646,4.83c3.388,0,5.754,2.184,5.754,5.474,0,1.89-.56,2.968-1.428,2.968-.476,0-.868-.28-.868-1.064V6.9h-.91V8.316a3.129,3.129,0,0,0-2.772-1.47,3.426,3.426,0,0,0-3.472,3.6,3.441,3.441,0,0,0,3.472,3.626,3.115,3.115,0,0,0,2.8-1.526A1.491,1.491,0,0,0,14.8,14.07c1.442,0,2.324-1.4,2.324-3.78C17.128,6.622,14.44,4.116,10.646,4.116Zm-.1,9.142a2.626,2.626,0,0,1-2.674-2.814,2.6,2.6,0,0,1,2.674-2.786,2.608,2.608,0,0,1,2.66,2.786A2.623,2.623,0,0,1,10.548,13.258Zm13.132.812a3.246,3.246,0,0,0,2.884-1.456l-.742-.5a2.491,2.491,0,0,1-2.142,1.078,2.7,2.7,0,0,1-2.786-2.87,2.706,2.706,0,0,1,2.786-2.87A2.5,2.5,0,0,1,25.822,8.54l.742-.5A3.216,3.216,0,0,0,23.68,6.58a3.625,3.625,0,0,0-3.794,3.738A3.636,3.636,0,0,0,23.68,14.07Zm8.806-7.49a4.676,4.676,0,0,0-3,.994l.448.742a3.751,3.751,0,0,1,2.45-.868c1.372,0,2.086.686,2.086,1.946v.448H32.136c-2.114,0-2.842.952-2.842,2.086,0,1.274,1.022,2.142,2.688,2.142a2.765,2.765,0,0,0,2.534-1.218V14h.952V9.436C35.468,7.532,34.39,6.58,32.486,6.58Zm-.35,6.706c-1.176,0-1.862-.532-1.862-1.386,0-.756.462-1.316,1.89-1.316h2.31v1.2A2.356,2.356,0,0,1,32.136,13.286Zm8.386-5.208V6.636H39.57V14h.994V10.248c0-1.736.938-2.716,2.478-2.716.07,0,.154.014.238.014V6.58A2.777,2.777,0,0,0,40.522,8.078Zm12.306,2.24a3.509,3.509,0,0,0-3.57-3.738,3.547,3.547,0,0,0-3.6,3.738,3.893,3.893,0,0,0,6.706,2.548l-.56-.644a2.9,2.9,0,0,1-2.254.966,2.726,2.726,0,0,1-2.9-2.562h6.16C52.814,10.514,52.828,10.4,52.828,10.318Zm-3.57-2.884a2.561,2.561,0,0,1,2.618,2.45H46.654A2.558,2.558,0,0,1,49.258,7.434ZM60.052,6.58A3.208,3.208,0,0,0,57.21,8.092V6.636h-.952v10.08h.994v-4.1a3.216,3.216,0,0,0,2.8,1.456,3.566,3.566,0,0,0,3.668-3.752A3.562,3.562,0,0,0,60.052,6.58Zm-.07,6.608a2.7,2.7,0,0,1-2.744-2.87,2.747,2.747,0,1,1,5.488,0A2.7,2.7,0,0,1,59.982,13.188Zm8.12-5.11V6.636H67.15V14h.994V10.248c0-1.736.938-2.716,2.478-2.716.07,0,.154.014.238.014V6.58A2.777,2.777,0,0,0,68.1,8.078Zm8.89,5.992a3.622,3.622,0,0,0,3.738-3.752,3.745,3.745,0,0,0-7.49,0A3.634,3.634,0,0,0,76.992,14.07Zm0-.882a2.7,2.7,0,0,1-2.744-2.87,2.74,2.74,0,1,1,5.474,0A2.685,2.685,0,0,1,76.992,13.188Zm5.39,1.484h7V14h-7Zm12.4-.6a3.622,3.622,0,0,0,3.738-3.752,3.745,3.745,0,0,0-7.49,0A3.634,3.634,0,0,0,94.786,14.07Zm0-.882a2.7,2.7,0,0,1-2.744-2.87,2.74,2.74,0,1,1,5.474,0A2.685,2.685,0,0,1,94.786,13.188Zm9.6-8.806a1.684,1.684,0,0,1,1.092.364L105.818,4a2.334,2.334,0,0,0-1.47-.462,2.028,2.028,0,0,0-2.226,2.184v.91h-1.316v.84h1.316V14h.994V7.476h2.24v-.84h-2.268V5.768C103.088,4.858,103.536,4.382,104.39,4.382Zm3.878,1.344v.91h-1.316v.84h1.316V14h.994V7.476h2.24v-.84h-2.268V5.768c0-.91.448-1.386,1.3-1.386a1.684,1.684,0,0,1,1.092.364L111.964,4a2.334,2.334,0,0,0-1.47-.462A2.028,2.028,0,0,0,108.268,5.726Zm6.2-2.114a.707.707,0,1,0,.728.686A.706.706,0,0,0,114.47,3.612ZM113.966,14h.994V6.636h-.994Zm8.218.07a3.246,3.246,0,0,0,2.884-1.456l-.742-.5a2.491,2.491,0,0,1-2.142,1.078,2.7,2.7,0,0,1-2.786-2.87,2.706,2.706,0,0,1,2.786-2.87,2.5,2.5,0,0,1,2.142,1.092l.742-.5a3.216,3.216,0,0,0-2.884-1.456,3.625,3.625,0,0,0-3.794,3.738A3.636,3.636,0,0,0,122.184,14.07Zm6.734-9.044a.714.714,0,0,0,.728-.728.706.706,0,0,0-.728-.686.707.707,0,1,0,0,1.414Zm-.5,8.974h.994V6.636h-.994Zm7.742-7.42a4.676,4.676,0,0,0-3,.994l.448.742a3.751,3.751,0,0,1,2.45-.868c1.372,0,2.086.686,2.086,1.946v.448h-2.338c-2.114,0-2.842.952-2.842,2.086,0,1.274,1.022,2.142,2.688,2.142a2.765,2.765,0,0,0,2.534-1.218V14h.952V9.436C139.138,7.532,138.06,6.58,136.156,6.58Zm-.35,6.706c-1.176,0-1.862-.532-1.862-1.386,0-.756.462-1.316,1.89-1.316h2.31v1.2A2.356,2.356,0,0,1,135.806,13.286ZM143.24,14h.994V3.612h-.994Z" transform="translate(891.5 3829.109)" fill="#9d9d9d"/>
    <g id="グループ_305" data-name="グループ 305" transform="translate(950.5 3793.187)" clip-path="url(#clip-path)">
      <path id="パス_494" data-name="パス 494" d="M15.381,2.771c4.107,0,4.593.016,6.215.09a8.51,8.51,0,0,1,2.856.53,4.766,4.766,0,0,1,1.769,1.151A4.766,4.766,0,0,1,27.371,6.31a8.511,8.511,0,0,1,.53,2.856c.074,1.622.09,2.108.09,6.215s-.016,4.593-.09,6.215a8.511,8.511,0,0,1-.53,2.856,5.094,5.094,0,0,1-2.919,2.919,8.51,8.51,0,0,1-2.856.53c-1.622.074-2.108.09-6.215.09s-4.594-.016-6.215-.09a8.511,8.511,0,0,1-2.856-.53A4.767,4.767,0,0,1,4.54,26.222,4.766,4.766,0,0,1,3.39,24.453,8.512,8.512,0,0,1,2.86,21.6c-.074-1.622-.09-2.108-.09-6.215s.016-4.594.09-6.215A8.512,8.512,0,0,1,3.39,6.31,4.766,4.766,0,0,1,4.54,4.541,4.767,4.767,0,0,1,6.309,3.391a8.51,8.51,0,0,1,2.856-.53c1.622-.074,2.108-.09,6.216-.09m0-2.771c-4.177,0-4.7.018-6.342.093A11.291,11.291,0,0,0,5.305.807,7.54,7.54,0,0,0,2.581,2.582,7.54,7.54,0,0,0,.807,5.306,11.29,11.29,0,0,0,.092,9.04C.017,10.68,0,11.2,0,15.381s.018,4.7.093,6.342a11.29,11.29,0,0,0,.715,3.734,7.54,7.54,0,0,0,1.774,2.724,7.54,7.54,0,0,0,2.724,1.774,11.291,11.291,0,0,0,3.734.715c1.64.075,2.164.093,6.342.093s4.7-.018,6.342-.093a11.291,11.291,0,0,0,3.734-.715,7.865,7.865,0,0,0,4.5-4.5,11.29,11.29,0,0,0,.715-3.734c.075-1.641.093-2.164.093-6.342s-.018-4.7-.093-6.342a11.29,11.29,0,0,0-.715-3.734A7.541,7.541,0,0,0,28.18,2.582,7.541,7.541,0,0,0,25.456.807,11.291,11.291,0,0,0,21.722.093C20.082.018,19.558,0,15.381,0" transform="translate(0.001 0)" fill="#9d9d9d"/>
      <path id="パス_495" data-name="パス 495" d="M130.454,122.556a7.9,7.9,0,1,0,7.9,7.9,7.9,7.9,0,0,0-7.9-7.9m0,13.026a5.127,5.127,0,1,1,5.127-5.127,5.127,5.127,0,0,1-5.127,5.127" transform="translate(-115.072 -115.073)" fill="#9d9d9d"/>
      <path id="パス_496" data-name="パス 496" d="M359.858,89.061a1.846,1.846,0,1,1-1.846-1.846,1.846,1.846,0,0,1,1.846,1.846" transform="translate(-334.42 -81.89)" fill="#9d9d9d"/>
    </g>
  </g>
</svg>
