<svg xmlns="http://www.w3.org/2000/svg" width="30.735" height="24.974" viewBox="0 0 30.735 24.974">
  <path id="パス_1453" data-name="パス 1453" d="M84.666,123.426c11.6,0,17.942-9.609,17.942-17.942,0-.273,0-.545-.018-.815a12.83,12.83,0,0,0,3.146-3.264,12.589,12.589,0,0,1-3.622.992,6.328,6.328,0,0,0,2.772-3.488,12.636,12.636,0,0,1-4,1.531,6.312,6.312,0,0,0-10.746,5.751,17.9,17.9,0,0,1-13-6.588,6.311,6.311,0,0,0,1.952,8.418,6.259,6.259,0,0,1-2.862-.789v.08a6.308,6.308,0,0,0,5.059,6.181,6.3,6.3,0,0,1-2.847.108,6.313,6.313,0,0,0,5.891,4.379,12.654,12.654,0,0,1-7.831,2.7,12.847,12.847,0,0,1-1.5-.091,17.853,17.853,0,0,0,9.666,2.828" transform="translate(-75 -98.452)" fill="#c3c3c3"/>
</svg>
