<svg id="グループ_1" data-name="グループ 1" xmlns="http://www.w3.org/2000/svg" width="159.863" height="17.299" viewBox="0 0 159.863 17.299">
  <path id="パス_1" data-name="パス 1" d="M385.417,224.643c-6.283,0-9.31,3.873-9.31,8.65s3.027,8.65,9.31,8.65,9.311-3.873,9.311-8.65S391.7,224.643,385.417,224.643Zm0,15.316c-6.614,0-7.328-4.662-7.328-6.667s.714-6.667,7.328-6.667,7.328,4.662,7.328,6.667S392.031,239.959,385.417,239.959Z" transform="translate(-234.865 -224.643)" fill="#d7bf88"/>
  <path id="パス_2" data-name="パス 2" d="M235.169,241.4a.989.989,0,0,0,.881.538h1.625l-8.9-17.3h-1.423a1.322,1.322,0,0,0-1.175.717l-8.53,16.582h2.229l7.785-15.132,4.439,8.631h-7.917v.991a.991.991,0,0,0,.991.991h7.946Z" transform="translate(-196.122 -224.643)" fill="#d7bf88"/>
  <path id="パス_3" data-name="パス 3" d="M320.914,226.626h9.777a2.839,2.839,0,0,1,2.829,3.029,2.9,2.9,0,0,1-2.928,2.643h-8.357v.991a.992.992,0,0,0,.992.991h7.463a4.818,4.818,0,0,0,4.819-4.818v0a4.818,4.818,0,0,0-4.819-4.818H319.923a.991.991,0,0,0-.991.991v16.307h1.982Z" transform="translate(-220.886 -224.643)" fill="#d7bf88"/>
  <path id="パス_4" data-name="パス 4" d="M262.317,226.626a2.839,2.839,0,0,1,2.829,3.029,2.9,2.9,0,0,1-2.928,2.643h-8.356v.991a.991.991,0,0,0,.991.991h4.535l5.236,7.25a.989.989,0,0,0,.8.411h1.939l-5.533-7.661h.484a4.818,4.818,0,0,0,4.818-4.818v0a4.818,4.818,0,0,0-4.818-4.818H251.548a.991.991,0,0,0-.991.991v16.307h1.982V226.626Z" transform="translate(-204.168 -224.643)" fill="#d7bf88"/>
  <path id="パス_5" data-name="パス 5" d="M359.986,234.28a4.818,4.818,0,0,0,4.818-4.818v0a4.818,4.818,0,0,0-4.818-4.818H349.218a.992.992,0,0,0-.992.991v16.307h1.983V226.626h9.777a2.838,2.838,0,0,1,2.829,3.029,2.9,2.9,0,0,1-2.928,2.643h-8.356v.991a.992.992,0,0,0,.991.991h4.534l5.236,7.25a.99.99,0,0,0,.8.411h1.939L359.5,234.28Z" transform="translate(-228.048 -224.643)" fill="#d7bf88"/>
  <path id="パス_6" data-name="パス 6" d="M295.734,240.95v-.991H282.4V226.626h12.346a.992.992,0,0,0,.992-.992v-.991H281.4a.992.992,0,0,0-.991.991v16.307h14.329A.991.991,0,0,0,295.734,240.95Z" transform="translate(-211.468 -224.643)" fill="#d7bf88"/>
  <path id="パス_7" data-name="パス 7" d="M285.678,234.687v1.982c2.526-.662,5.041.221,7.576.221,2.9,0,3.767-1.543,3.767-2.2C293.24,235.679,289.459,233.7,285.678,234.687Z" transform="translate(-212.755 -227.029)" fill="#d7bf88"/>
  <path id="パス_8" data-name="パス 8" d="M198.465,226.626c3.25,0,5.075,1.126,6.092,2.508a1.673,1.673,0,0,0,1.343.7l1.27,0c-1.17-3.056-4.04-5.191-8.7-5.191-6.283,0-9.31,3.873-9.31,8.65s3.027,8.65,9.31,8.65c4.665,0,7.535-2.136,8.7-5.191l-1.269,0a1.675,1.675,0,0,0-1.344.7c-1.016,1.383-2.841,2.509-6.092,2.509-6.614,0-7.328-4.662-7.328-6.667S191.851,226.626,198.465,226.626Z" transform="translate(-189.155 -224.643)" fill="#d7bf88"/>
</svg>
