<svg xmlns="http://www.w3.org/2000/svg" xmlns:xlink="http://www.w3.org/1999/xlink" width="125.551" height="35.445" viewBox="0 0 125.551 35.445"><defs><clipPath id="a"><rect width="125.551" height="35.445" fill="#fff"/></clipPath></defs><g transform="translate(0 0)"><g transform="translate(0 0)" clip-path="url(#a)"><path d="M.157,1.463H2.022V14.1H2.1c1.3-2.411,3.8-4.187,7.617-4.187,5.369,0,8.791,4.187,8.791,9.242,0,6.414-4.563,9.768-9.1,9.768a8.067,8.067,0,0,1-7.5-3.962H1.831l-.116,3.5H0c.109-1.475.15-2.9.15-4.379V1.463Zm1.865,19.8a5.744,5.744,0,0,0,.191,1.393,7.075,7.075,0,0,0,6.892,4.754c4.645,0,7.535-3.244,7.535-8.183,0-4.221-2.739-7.807-7.309-7.807a7.157,7.157,0,0,0-7,5.055,5.07,5.07,0,0,0-.307,1.66v3.129" transform="translate(0 -1.019)" fill="#fff"/><path d="M64.722,27.453V10.82h-2.78V9.351h2.78V8.483c0-3.094.649-5.4,2.207-6.865A6.77,6.77,0,0,1,74.272.676L73.664,2.11a5.18,5.18,0,0,0-2.548-.567c-3.73,0-4.529,3.245-4.529,6.9v.909h5.369V10.82H66.587V27.453Z" transform="translate(-43.137 0)" fill="#fff"/><path d="M110.557,1.463V24.094c0,1.468.041,2.9.157,4.372H109l-.116-3.771h-.075a7.811,7.811,0,0,1-7.384,4.228,8.769,8.769,0,0,1-8.791-9.092C92.6,13.95,96.7,9.913,101.84,9.913c3.8,0,5.977,2,6.776,3.47h.075V1.463Zm-1.865,16.182a7.227,7.227,0,0,0-.226-1.776,6.641,6.641,0,0,0-6.585-4.447c-4.337,0-7.384,3.279-7.384,8.183,0,4.071,2.4,7.808,7.343,7.808a6.868,6.868,0,0,0,6.626-4.98,5.217,5.217,0,0,0,.226-1.585Z" transform="translate(-64.51 -1.019)" fill="#fff"/><path d="M161.371,38.782c0,5.28,3.388,7.924,7.726,7.924a12.8,12.8,0,0,0,5.861-1.134l.5,1.469a14.82,14.82,0,0,1-6.544,1.243c-5.67,0-9.365-3.812-9.365-9.051,0-6.148,3.962-9.959,9.14-9.959,6.776,0,7.958,5.956,7.958,8.375a4.552,4.552,0,0,1-.075,1.134Zm13.32-1.468c.034-1.885-.765-6.524-6.243-6.524-4.645,0-6.585,3.771-6.967,6.524Z" transform="translate(-111.11 -20.386)" fill="#fff"/><path d="M221.91,45.4a8.953,8.953,0,0,0,4.57,1.359c3.2,0,4.6-1.66,4.6-3.5,0-2.111-1.448-3.129-4.3-4.037-3.313-1.059-4.946-2.753-4.946-4.9,0-2.561,2.056-5.021,6.018-5.021a8.016,8.016,0,0,1,4.413,1.209l-.724,1.51a7.059,7.059,0,0,0-4.037-1.168c-2.514,0-3.846,1.51-3.846,3.245,0,2.036,1.557,2.828,4.262,3.737,3.347,1.134,4.987,2.568,4.987,5.28,0,2.944-2.432,5.205-6.585,5.205a10.327,10.327,0,0,1-5.1-1.318Z" transform="translate(-154.059 -20.398)" fill="#fff"/><path d="M271.525,11.046a1.561,1.561,0,0,1-1.482-1.619,1.543,1.543,0,1,1,1.523,1.619Zm-.874,3.737h1.865v18.1H270.65Z" transform="translate(-188.059 -5.438)" fill="#fff"/><path d="M307.414,45.155c0,4.413-1.1,6.94-2.814,8.45a10.428,10.428,0,0,1-6.851,2.227,11.563,11.563,0,0,1-6.51-1.769l.683-1.469a10.786,10.786,0,0,0,6.127,1.735c4.378,0,7.5-2.193,7.5-7.7V43.987h-.075a7.993,7.993,0,0,1-7.275,3.846,8.71,8.71,0,0,1-8.717-8.7c0-.041,0-.082,0-.122,0-6.073,4.495-9.734,9.14-9.734,4.037,0,6.2,2.077,7.043,3.812h.075l.116-3.354h1.714c-.109,1.468-.15,2.9-.15,4.372V45.155Zm-1.865-8.142a5.77,5.77,0,0,0-.267-1.885,6.667,6.667,0,0,0-6.475-4.338c-4.379,0-7.459,3.17-7.459,8,0,3.62,2.281,7.541,7.384,7.541a7,7,0,0,0,6.435-4.338,5.386,5.386,0,0,0,.383-1.96Z" transform="translate(-201.598 -20.386)" fill="#fff"/><path d="M360.555,34.118c0-1.468-.034-2.9-.15-4.379h1.749l.15,3.62h.075a7.77,7.77,0,0,1,7.042-4.071c1.673,0,7.118.751,7.118,8.259V47.841h-1.865V37.547c0-3.545-1.564-6.674-5.752-6.674a6.741,6.741,0,0,0-6.209,4.3,5.212,5.212,0,0,0-.307,1.626V47.855h-1.865V34.118Z" transform="translate(-250.989 -20.395)" fill="#fff"/></g></g></svg>